<?xml version="1.0" standalone="no"?>
<!DOCTYPE svg PUBLIC "-//W3C//DTD SVG 20010904//EN"
 "http://www.w3.org/TR/2001/REC-SVG-20010904/DTD/svg10.dtd">
<svg version="1.0" xmlns="http://www.w3.org/2000/svg"
 width="180.000000pt" height="180.000000pt" viewBox="0 0 180.000000 180.000000"
 preserveAspectRatio="xMidYMid meet">
<metadata>
Created by potrace 1.11, written by Peter Selinger 2001-2013
</metadata>
<g transform="translate(0.000000,180.000000) scale(0.100000,-0.100000)"
fill="#000000" stroke="none">
<path d="M1722 1187 l-62 -63 0 -65 c0 -36 3 -69 7 -73 4 -3 35 22 70 56 l63
62 0 73 c0 40 -4 73 -8 73 -4 0 -36 -28 -70 -63z"/>
<path d="M273 1022 c-184 -179 -227 -227 -248 -272 -32 -70 -32 -126 -2 -171
38 -57 53 -52 181 72 64 61 116 115 116 120 0 5 -29 9 -64 9 -117 0 -119 38
-10 158 36 40 70 72 75 72 5 0 9 -99 9 -235 0 -184 3 -235 13 -235 7 0 49 37
95 83 l82 82 0 268 c0 207 -3 267 -12 267 -7 0 -113 -98 -235 -218z"/>
<path d="M1322 1184 l-62 -56 0 -294 c0 -232 3 -294 13 -294 7 0 41 28 75 63
l62 63 0 90 c0 78 3 93 20 109 20 18 20 17 20 -148 0 -110 4 -168 11 -173 6
-3 39 22 75 57 l64 63 0 188 c0 118 -4 189 -10 193 -6 4 -49 -31 -95 -76 l-85
-83 0 177 c0 141 -3 177 -13 177 -8 0 -41 -25 -75 -56z"/>
<path d="M710 1039 c-44 -9 -170 -135 -170 -169 0 -16 34 -58 107 -132 116
-117 119 -127 59 -156 -43 -21 -56 -3 -56 79 0 38 -4 69 -8 69 -4 0 -34 -26
-66 -59 -47 -48 -57 -63 -51 -81 14 -45 125 -65 190 -34 19 9 56 40 84 69 78
82 75 96 -50 221 -69 69 -100 107 -96 118 8 21 54 49 67 41 5 -3 10 -35 10
-71 0 -35 3 -64 8 -64 11 1 122 109 122 120 0 30 -94 61 -150 49z"/>
<path d="M1049 916 c-82 -79 -145 -149 -159 -176 -40 -79 -24 -178 32 -196 16
-5 32 6 72 45 28 28 55 51 59 51 4 0 7 -22 7 -50 0 -29 5 -50 11 -50 6 0 37
25 70 57 l59 56 0 193 c0 106 -3 195 -8 197 -4 3 -68 -54 -143 -127z m-5 -237
c-27 -30 -51 -24 -64 15 -16 51 -3 103 39 149 l36 40 3 -93 c2 -76 0 -96 -14
-111z"/>
<path d="M1722 987 l-62 -63 0 -192 c0 -130 3 -192 11 -192 6 0 37 25 70 57
l59 56 0 199 c0 109 -4 198 -8 198 -4 0 -36 -28 -70 -63z"/>
</g>
</svg>
