<svg xmlns="http://www.w3.org/2000/svg" width="200" height="80" viewBox="0 0 200 80">
  <path d="M37.9,25.1V76.8c0,1.8,1.5,2.1,2.8.7L57.9,60.6V3.4c0-1.6-1.4-1.9-2.7-.6L12.2,45C-.1,57.3-.5,70.6,6.8,77c2.2,1.5,3.7,1.6,5.3.1l23.7-23c1.7-1.8-.5-1.9-.5-1.9H22.9c-4.5-.1-5.4-5.8.3-12.2Z" fill="#124493"/>
  <path d="M85.1,40,94,31.4c1.2-1.4,1.3-2.3-.3-3.8-6.2-5.3-15.2-5.4-20.7-.1L64.3,36c-5,5.6-2.9,9.3,0,12.2L82.9,66.6c2.2,1.9.9,5.1-3.1,7.2S72.2,75,72.2,70V59.4c-.1-1.6-.8-1.6-1.7-.6L59.7,69.6c-2.1,2.4.1,5.5,3.4,6.8,10.7,3.5,16.8.9,21.9-3.7l7-7c5.5-6.6.3-11.1.3-11.1-2.6-2.8-18-17.7-18-17.7-3.8-3.1-2.8-6.2,2.8-9.5,2.2-1.2,4.2-.4,4.2,1.7V40.4c0,2.3,1.3,2.2,3.8-.4" fill="#124493"/>
  <path d="M139.2,15.1V75.4c0,3.2,1.7,3.3,3.5,1.6l12.4-12.2V45.2l5.4-5.4V75.7c0,2.7,1.4,2.9,3.5,1.1l11.8-11.7V25.3c0-2.2-1.5-2.7-3.2-.7l-17.4,17V4.4c0-3.1-1.8-2.9-3.2-1.4Z" fill="#124493"/>
  <path d="M195.3,2.4,182.8,14.5V27.8c0,2.1,1.3,2.3,3,.8l12.1-12V3c-.1-1.7-1.4-1.7-2.6-.6" fill="#124493"/>
  <path d="M195.3,24.2,183,36.2V76.3c.1,2,1.3,2.2,2.9.6L198,65V25.1c0-1.9-1.3-2.4-2.7-.9" fill="#124493"/>
  <path d="M107.4,56.8A17.2,17.2,0,0,1,113.1,44l4.3-4.2V62.3l-4,3.4c-2.4,1.8-6-1.9-6-8.9m21.8-32.1L104.6,48.9c-6.1,6.1-12.9,20-3.8,27.9,2.4,1.7,3.3,1.4,5,0l11.5-11.1V76.2c0,1.9,1.5,2.2,3.1.7l12.1-11.6V25.5c.1-2.6-1.3-2.7-3.3-.8" fill="#124493"/>
</svg>
